<svg width="15" height="11" viewBox="0 0 15 11" fill="none" xmlns="http://www.w3.org/2000/svg">
<path d="M14.7158 3.57568C14.8301 3.48826 15 3.57004 15 3.70822V9.475C15 10.2223 14.3701 10.8286 13.5938 10.8286H1.40625C0.629883 10.8286 0 10.2223 0 9.475V3.71104C0 3.57004 0.166992 3.49108 0.28418 3.5785C0.94043 4.06917 1.81055 4.69238 4.79883 6.78195C5.41699 7.21622 6.45996 8.12988 7.5 8.12424C8.5459 8.1327 9.60938 7.1993 10.2041 6.78195C13.1924 4.69238 14.0596 4.06635 14.7158 3.57568ZM7.5 7.21904C8.17969 7.23032 9.1582 6.39562 9.65039 6.05159C13.5381 3.33599 13.834 3.09911 14.7305 2.42233C14.9004 2.29543 15 2.09803 15 1.88936V1.35357C15 0.606287 14.3701 0 13.5938 0H1.40625C0.629883 0 0 0.606287 0 1.35357V1.88936C0 2.09803 0.0996094 2.29261 0.269531 2.42233C1.16602 3.09629 1.46191 3.33599 5.34961 6.05159C5.8418 6.39562 6.82031 7.23032 7.5 7.21904Z" fill="#C22B4C"/>
</svg>
