<svg width="26" height="26" viewBox="0 0 26 26" fill="none" xmlns="http://www.w3.org/2000/svg">
<path d="M7.00488 15.24C9.97338 15.24 12.3799 12.8335 12.3799 9.86499C12.3799 6.89646 9.97338 4.48999 7.00488 4.48999C4.03635 4.48999 1.62988 6.89646 1.62988 9.86499C1.62988 12.8335 4.03635 15.24 7.00488 15.24Z" stroke="#C22B4C" stroke-width="0.9" stroke-miterlimit="10"/>
<path d="M7.1924 21.8025C8.50408 21.8025 9.5674 20.7392 9.5674 19.4275C9.5674 18.1158 8.50408 17.0525 7.1924 17.0525C5.8807 17.0525 4.81738 18.1158 4.81738 19.4275C4.81738 20.7392 5.8807 21.8025 7.1924 21.8025Z" stroke="#C22B4C" stroke-width="0.9" stroke-miterlimit="10"/>
<path d="M20.6299 21.8025C21.9416 21.8025 23.0049 20.7392 23.0049 19.4275C23.0049 18.1158 21.9416 17.0525 20.6299 17.0525C19.3182 17.0525 18.2549 18.1158 18.2549 19.4275C18.2549 20.7392 19.3182 21.8025 20.6299 21.8025Z" stroke="#C22B4C" stroke-width="0.9" stroke-miterlimit="10"/>
<path d="M3.56738 9.86499L5.94238 12.24L10.3174 7.92749" stroke="#C22B4C" stroke-width="0.9" stroke-miterlimit="10" stroke-linecap="round"/>
<path d="M13.1924 7.92749H20.0674L23.9424 11.4275V18.6775H22.8799" stroke="#C22B4C" stroke-width="0.9" stroke-miterlimit="10" stroke-linecap="round"/>
<path d="M17.7549 8.23999V12.865H23.5049" stroke="#C22B4C" stroke-width="0.9" stroke-miterlimit="10" stroke-linecap="round"/>
<path d="M18.2549 18.9275H9.50488" stroke="#C22B4C" stroke-width="0.9" stroke-miterlimit="10" stroke-linecap="round"/>
<path d="M4.81738 18.9275H3.56738V16.0525" stroke="#C22B4C" stroke-width="0.9" stroke-miterlimit="10" stroke-linecap="round"/>
</svg>
