<svg width="15" height="15" viewBox="0 0 15 15" fill="none" xmlns="http://www.w3.org/2000/svg">
<path d="M14.4551 0.709768L11.4083 0.0176157C11.0772 -0.0573675 10.7374 0.112787 10.6026 0.418487L9.19641 3.64853C9.07336 3.93116 9.15539 4.26282 9.39855 4.45604L11.1739 5.88649C10.1192 8.09849 8.2765 9.93846 5.9826 10.9969L4.52951 9.2492C4.3303 9.00983 3.99632 8.92908 3.70921 9.0502L0.428031 10.4345C0.114561 10.5701 -0.0582874 10.9046 0.0178829 11.2305L0.720994 14.2298C0.794234 14.5413 1.07548 14.7662 1.40653 14.7662C8.9093 14.7662 15 8.78199 15 1.38462C15 1.06161 14.7744 0.781867 14.4551 0.709768Z" fill="#4160DF"/>
</svg>
