<svg width="15" height="15" viewBox="0 0 15 15" fill="none" xmlns="http://www.w3.org/2000/svg">
<path d="M12.7533 2.14572C11.3504 0.761383 9.48214 0 7.49665 0C3.39844 0 0.0636161 3.28285 0.0636161 7.31719C0.0636161 8.60594 0.405134 9.86503 1.05469 10.9758L0 14.7662L3.94085 13.7478C5.02567 14.3312 6.24777 14.6377 7.4933 14.6377H7.49665C11.5915 14.6377 15 11.3548 15 7.32049C15 5.36594 14.1562 3.53005 12.7533 2.14572ZM7.49665 13.405C6.38504 13.405 5.29687 13.1116 4.34933 12.5579L4.125 12.426L1.78795 13.0292L2.41071 10.7846L2.26339 10.5539C1.64397 9.58486 1.3192 8.46751 1.3192 7.31719C1.3192 3.96513 4.09152 1.23601 7.5 1.23601C9.15067 1.23601 10.7009 1.86885 11.8661 3.01917C13.0312 4.16948 13.7478 5.69554 13.7444 7.32049C13.7444 10.6759 10.9018 13.405 7.49665 13.405ZM10.885 8.84985C10.7009 8.75756 9.78683 8.31589 9.61607 8.25656C9.44531 8.19394 9.32143 8.16427 9.19755 8.34885C9.07366 8.53343 8.71875 8.94214 8.60826 9.06739C8.50112 9.18934 8.39063 9.20582 8.20647 9.11353C7.11496 8.57628 6.39844 8.15439 5.67857 6.93815C5.48772 6.61514 5.86942 6.63821 6.22433 5.93945C6.2846 5.8175 6.25446 5.71202 6.20759 5.61974C6.16071 5.52745 5.78906 4.62763 5.63504 4.26177C5.48437 3.9058 5.33036 3.95524 5.21652 3.94865C5.10938 3.94206 4.98549 3.94206 4.86161 3.94206C4.73772 3.94206 4.53683 3.9882 4.36607 4.16948C4.19531 4.35406 3.71652 4.79573 3.71652 5.69554C3.71652 6.59536 4.38281 7.46551 4.47321 7.58747C4.56696 7.70942 5.78237 9.5552 7.64732 10.3495C8.82589 10.8505 9.28795 10.8934 9.87723 10.8077C10.2355 10.755 10.9754 10.366 11.1295 9.93754C11.2835 9.50905 11.2835 9.14319 11.2366 9.06739C11.1931 8.98499 11.0692 8.93884 10.885 8.84985Z" fill="#6BC41D"/>
</svg>
